<svg xmlns="http://www.w3.org/2000/svg" width="1200" height="630" viewBox="0 0 1200 630" role="img" aria-labelledby="title desc">
  <title id="title">wojciech.io default social preview</title>
  <desc id="desc">Dark social preview image for wojciech.io.</desc>
  <rect width="1200" height="630" fill="#080d1a"/>
  <path d="M0 520h1200v110H0z" fill="#0f1629"/>
  <g opacity="0.55">
    <path d="M96 96h1008M96 186h1008M96 276h1008M96 366h1008M96 456h1008M96 546h1008" stroke="#1e2d4a" stroke-width="1"/>
    <path d="M96 96v450M216 96v450M336 96v450M456 96v450M576 96v450M696 96v450M816 96v450M936 96v450M1056 96v450" stroke="#1e2d4a" stroke-width="1"/>
  </g>
  <rect x="96" y="96" width="1008" height="438" rx="24" fill="#0f1629" stroke="#2a3f5f" stroke-width="2"/>
  <circle cx="1008" cy="174" r="46" fill="#ebff00"/>
  <text x="144" y="226" fill="#ebff00" font-family="Arial, sans-serif" font-size="28" font-weight="700" letter-spacing="3">WOJCIECH.IO</text>
  <text x="144" y="330" fill="#eef2ff" font-family="Arial, sans-serif" font-size="62" font-weight="700">Growth systems</text>
  <text x="144" y="404" fill="#eef2ff" font-family="Arial, sans-serif" font-size="62" font-weight="700">that compound.</text>
  <text x="144" y="476" fill="#8b9dc3" font-family="Arial, sans-serif" font-size="30">GTM architecture. AI-native workflows. Products shipped.</text>
</svg>
